<svg width="360" height="228" viewBox="0 0 360 228" fill="none" xmlns="http://www.w3.org/2000/svg">
<g clip-path="url(#clip0_427_842)">
<g filter="url(#filter0_d_427_842)">
<rect width="360" height="220" rx="13" fill="#0B334D"/>
</g>
<mask id="mask0_427_842" style="mask-type:luminance" maskUnits="userSpaceOnUse" x="40" y="-31" width="384" height="283">
<path d="M423.784 -31H40V252H423.784V-31Z" fill="white"/>
</mask>
<g mask="url(#mask0_427_842)">
<path d="M131.761 110.633C131.761 79.2486 105.825 53.8188 73.8156 53.8188C65.2251 53.8188 57.0723 55.6429 49.7402 58.9692C43.3383 74.9567 39.7817 92.4463 39.7817 110.687C39.7817 128.928 43.2836 146.364 49.7402 162.405C57.0723 165.678 65.2251 167.555 73.8156 167.555C105.825 167.448 131.761 142.018 131.761 110.633Z" fill="white" fill-opacity="0.03"/>
<path d="M279.386 -30.7319C218.377 -30.7319 166.232 6.44703 145.166 58.916C152.498 55.6434 160.651 53.7657 169.241 53.7657C194.958 53.7657 216.735 70.1824 224.341 92.876C231.947 70.1824 253.724 53.7657 279.441 53.7657C311.45 53.7657 337.386 79.1955 337.386 110.58C337.386 141.965 311.45 167.395 279.441 167.395C253.724 167.395 231.947 150.978 224.341 128.285C216.735 150.978 194.958 167.395 169.241 167.395C160.651 167.395 152.498 165.571 145.166 162.245C166.232 214.821 218.377 252 279.386 252C358.999 252 423.565 188.694 423.565 110.634C423.565 32.5742 358.999 -30.7319 279.386 -30.7319Z" fill="white" fill-opacity="0.03"/>
</g>
</g>
<circle cx="284" cy="110" r="45.5" stroke="white" stroke-width="9"/>
<circle cx="284" cy="110" r="30.5" stroke="white" stroke-width="9"/>
<circle cx="284" cy="110" r="15.5" stroke="white" stroke-width="9"/>
<rect x="247" y="94" width="74" height="32" rx="16" fill="#0B334D"/>
<path d="M263.166 115.582C263.639 115.582 264.076 115.485 264.477 115.292C264.878 115.099 265.207 114.834 265.465 114.497C265.723 114.153 265.869 113.763 265.905 113.326H267.796C267.76 114.014 267.527 114.655 267.098 115.249C266.675 115.836 266.12 116.312 265.433 116.678C264.745 117.036 263.99 117.215 263.166 117.215C262.292 117.215 261.53 117.061 260.878 116.753C260.233 116.445 259.696 116.022 259.267 115.485C258.844 114.948 258.525 114.332 258.311 113.638C258.103 112.936 257.999 112.195 257.999 111.414V110.963C257.999 110.182 258.103 109.445 258.311 108.75C258.525 108.048 258.844 107.429 259.267 106.892C259.696 106.354 260.233 105.932 260.878 105.624C261.53 105.316 262.292 105.162 263.166 105.162C264.076 105.162 264.87 105.348 265.551 105.721C266.231 106.086 266.765 106.587 267.151 107.225C267.545 107.855 267.76 108.571 267.796 109.373H265.905C265.869 108.893 265.733 108.46 265.497 108.073C265.268 107.687 264.953 107.379 264.552 107.149C264.158 106.913 263.696 106.795 263.166 106.795C262.557 106.795 262.045 106.917 261.63 107.16C261.222 107.396 260.896 107.719 260.652 108.127C260.416 108.528 260.244 108.976 260.137 109.47C260.036 109.957 259.986 110.454 259.986 110.963V111.414C259.986 111.923 260.036 112.424 260.137 112.918C260.237 113.412 260.405 113.86 260.642 114.261C260.885 114.662 261.211 114.984 261.619 115.228C262.035 115.464 262.55 115.582 263.166 115.582ZM272.189 100.5V117H270.191V100.5H272.189ZM282.233 115.013V109.029C282.233 108.571 282.14 108.174 281.954 107.837C281.775 107.493 281.503 107.228 281.138 107.042C280.772 106.856 280.321 106.763 279.784 106.763C279.283 106.763 278.842 106.849 278.463 107.021C278.09 107.192 277.797 107.418 277.582 107.697C277.374 107.977 277.271 108.277 277.271 108.6H275.283C275.283 108.184 275.391 107.772 275.605 107.364C275.82 106.956 276.128 106.587 276.529 106.258C276.938 105.921 277.424 105.656 277.99 105.463C278.563 105.262 279.201 105.162 279.902 105.162C280.747 105.162 281.492 105.305 282.137 105.592C282.788 105.878 283.297 106.312 283.662 106.892C284.035 107.465 284.221 108.184 284.221 109.051V114.465C284.221 114.852 284.253 115.263 284.317 115.7C284.389 116.137 284.493 116.513 284.629 116.828V117H282.556C282.455 116.771 282.377 116.466 282.319 116.087C282.262 115.7 282.233 115.342 282.233 115.013ZM282.577 109.953L282.599 111.35H280.59C280.024 111.35 279.519 111.396 279.075 111.489C278.631 111.575 278.259 111.708 277.958 111.887C277.657 112.066 277.428 112.291 277.271 112.563C277.113 112.828 277.034 113.14 277.034 113.498C277.034 113.863 277.117 114.196 277.281 114.497C277.446 114.798 277.693 115.038 278.022 115.217C278.359 115.389 278.771 115.475 279.258 115.475C279.867 115.475 280.404 115.346 280.869 115.088C281.335 114.83 281.703 114.515 281.976 114.143C282.255 113.77 282.405 113.409 282.427 113.058L283.275 114.014C283.225 114.314 283.089 114.647 282.867 115.013C282.645 115.378 282.348 115.729 281.976 116.065C281.61 116.395 281.174 116.671 280.665 116.893C280.164 117.107 279.598 117.215 278.968 117.215C278.18 117.215 277.489 117.061 276.895 116.753C276.307 116.445 275.849 116.033 275.52 115.518C275.197 114.995 275.036 114.411 275.036 113.767C275.036 113.144 275.158 112.596 275.401 112.123C275.645 111.643 275.996 111.246 276.454 110.931C276.912 110.608 277.464 110.365 278.108 110.2C278.753 110.035 279.473 109.953 280.268 109.953H282.577ZM289.506 105.377V117H287.508V105.377H289.506ZM287.357 102.294C287.357 101.972 287.454 101.7 287.647 101.478C287.848 101.256 288.142 101.145 288.528 101.145C288.908 101.145 289.198 101.256 289.398 101.478C289.606 101.7 289.71 101.972 289.71 102.294C289.71 102.602 289.606 102.867 289.398 103.089C289.198 103.304 288.908 103.411 288.528 103.411C288.142 103.411 287.848 103.304 287.647 103.089C287.454 102.867 287.357 102.602 287.357 102.294ZM294.673 107.687V117H292.675V105.377H294.565L294.673 107.687ZM294.265 110.748L293.341 110.716C293.348 109.921 293.452 109.187 293.652 108.514C293.853 107.833 294.15 107.243 294.544 106.741C294.938 106.24 295.428 105.853 296.016 105.581C296.603 105.302 297.283 105.162 298.057 105.162C298.601 105.162 299.102 105.241 299.561 105.398C300.019 105.549 300.416 105.789 300.753 106.118C301.09 106.448 301.351 106.87 301.537 107.386C301.723 107.901 301.816 108.524 301.816 109.255V117H299.829V109.352C299.829 108.743 299.725 108.256 299.518 107.891C299.317 107.525 299.031 107.26 298.658 107.096C298.286 106.924 297.849 106.838 297.348 106.838C296.76 106.838 296.27 106.942 295.876 107.149C295.482 107.357 295.167 107.644 294.931 108.009C294.694 108.374 294.522 108.793 294.415 109.266C294.315 109.731 294.265 110.225 294.265 110.748ZM301.795 109.652L300.463 110.061C300.47 109.423 300.574 108.811 300.774 108.224C300.982 107.636 301.279 107.114 301.666 106.655C302.06 106.197 302.543 105.835 303.116 105.57C303.689 105.298 304.344 105.162 305.082 105.162C305.705 105.162 306.257 105.244 306.736 105.409C307.223 105.574 307.632 105.828 307.961 106.172C308.298 106.508 308.552 106.942 308.724 107.472C308.896 108.002 308.981 108.632 308.981 109.362V117H306.983V109.341C306.983 108.689 306.88 108.184 306.672 107.826C306.471 107.461 306.185 107.207 305.812 107.063C305.447 106.913 305.01 106.838 304.502 106.838C304.065 106.838 303.678 106.913 303.342 107.063C303.005 107.214 302.722 107.422 302.493 107.687C302.264 107.944 302.089 108.242 301.967 108.578C301.852 108.915 301.795 109.273 301.795 109.652Z" fill="white"/>
<defs>
<filter id="filter0_d_427_842" x="-4" y="-1" width="368" height="228" filterUnits="userSpaceOnUse" color-interpolation-filters="sRGB">
<feFlood flood-opacity="0" result="BackgroundImageFix"/>
<feColorMatrix in="SourceAlpha" type="matrix" values="0 0 0 0 0 0 0 0 0 0 0 0 0 0 0 0 0 0 127 0" result="hardAlpha"/>
<feOffset dy="3"/>
<feGaussianBlur stdDeviation="2"/>
<feComposite in2="hardAlpha" operator="out"/>
<feColorMatrix type="matrix" values="0 0 0 0 0 0 0 0 0 0 0 0 0 0 0 0 0 0 0.25 0"/>
<feBlend mode="normal" in2="BackgroundImageFix" result="effect1_dropShadow_427_842"/>
<feBlend mode="normal" in="SourceGraphic" in2="effect1_dropShadow_427_842" result="shape"/>
</filter>
<clipPath id="clip0_427_842">
<rect width="360" height="228" fill="white"/>
</clipPath>
</defs>
</svg>
