<svg width="35" height="35" viewBox="0 0 35 35" fill="none" xmlns="http://www.w3.org/2000/svg">
<g clip-path="url(#clip0_313_634)">
<path d="M8.35987 34.7685H26.6791C28.3122 34.7685 29.6357 33.4446 29.6357 31.8118V11.7999H5.40284V31.8118C5.40322 33.4446 6.72711 34.7685 8.35987 34.7685Z" fill="white"/>
<path d="M4.7182 8.72603H30.3207C31.1694 8.72603 31.8574 8.03796 31.8574 7.18931C31.8574 6.34065 31.1694 5.65259 30.3207 5.65259H4.71782C3.86916 5.65259 3.1811 6.34065 3.1811 7.18931C3.1811 8.03796 3.86955 8.72603 4.7182 8.72603Z" fill="white"/>
<path d="M12.5962 8.72604H22.4428C23.2914 8.72604 23.9795 8.03798 23.9795 7.18933V3.14891C23.9795 1.51883 22.6533 0.192261 21.0228 0.192261H14.0162C12.3857 0.192261 11.0595 1.51883 11.0595 3.14891V7.18933C11.0595 8.03798 11.7476 8.72604 12.5962 8.72604ZM20.9061 5.65261H14.133V3.2657H20.9061V5.65261Z" fill="white"/>
<path d="M13.7606 30.2486C14.6093 30.2486 15.2974 29.5605 15.2974 28.7119V17.4712C15.2974 16.6225 14.6093 15.9344 13.7606 15.9344C12.912 15.9344 12.2239 16.6225 12.2239 17.4712V28.7119C12.2239 29.5605 12.912 30.2486 13.7606 30.2486Z" fill="white"/>
<path d="M21.2782 30.2486C22.1269 30.2486 22.8149 29.5605 22.8149 28.7119V17.4712C22.8149 16.6225 22.1269 15.9344 21.2782 15.9344C20.4296 15.9344 19.7415 16.6225 19.7415 17.4712V28.7119C19.7415 29.5605 20.4296 30.2486 21.2782 30.2486Z" fill="white"/>
</g>
<defs>
<clipPath id="clip0_313_634">
<rect width="35" height="35" fill="white" transform="matrix(-1 0 0 1 35 0)"/>
</clipPath>
</defs>
</svg>
