<svg width="364" height="229" viewBox="0 0 364 229" fill="none" xmlns="http://www.w3.org/2000/svg">
<rect width="364" height="229" fill="#F0F7FC"/>
<g clip-path="url(#clip0_427_842)">
<g filter="url(#filter0_d_427_842)">
<rect x="2" y="1" width="360" height="220" rx="13" fill="#0B334D"/>
</g>
<mask id="mask0_427_842" style="mask-type:luminance" maskUnits="userSpaceOnUse" x="42" y="-30" width="384" height="283">
<path d="M425.784 -30H42V253H425.784V-30Z" fill="white"/>
</mask>
<g mask="url(#mask0_427_842)">
<path d="M133.761 111.633C133.761 80.2486 107.825 54.8188 75.8156 54.8188C67.2251 54.8188 59.0723 56.6429 51.7402 59.9692C45.3383 75.9567 41.7817 93.4463 41.7817 111.687C41.7817 129.928 45.2836 147.364 51.7402 163.405C59.0723 166.678 67.2251 168.555 75.8156 168.555C107.825 168.448 133.761 143.018 133.761 111.633Z" fill="white" fill-opacity="0.03"/>
<path d="M281.386 -29.7319C220.377 -29.7319 168.232 7.44703 147.166 59.916C154.498 56.6434 162.651 54.7657 171.241 54.7657C196.958 54.7657 218.735 71.1824 226.341 93.876C233.947 71.1824 255.724 54.7657 281.441 54.7657C313.45 54.7657 339.386 80.1955 339.386 111.58C339.386 142.965 313.45 168.395 281.441 168.395C255.724 168.395 233.947 151.978 226.341 129.285C218.735 151.978 196.958 168.395 171.241 168.395C162.651 168.395 154.498 166.571 147.166 163.245C168.232 215.821 220.377 253 281.386 253C360.999 253 425.565 189.694 425.565 111.634C425.565 33.5742 360.999 -29.7319 281.386 -29.7319Z" fill="white" fill-opacity="0.03"/>
</g>
</g>
<circle cx="282" cy="112" r="45.5" stroke="white" stroke-opacity="0.14" stroke-width="9"/>
<circle cx="282" cy="112" r="30.5" stroke="white" stroke-opacity="0.14" stroke-width="9"/>
<circle cx="282" cy="112" r="15.5" stroke="white" stroke-opacity="0.14" stroke-width="9"/>
<circle cx="282" cy="112" r="5" fill="white" fill-opacity="0.14"/>
<defs>
<filter id="filter0_d_427_842" x="-2" y="0" width="368" height="228" filterUnits="userSpaceOnUse" color-interpolation-filters="sRGB">
<feFlood flood-opacity="0" result="BackgroundImageFix"/>
<feColorMatrix in="SourceAlpha" type="matrix" values="0 0 0 0 0 0 0 0 0 0 0 0 0 0 0 0 0 0 127 0" result="hardAlpha"/>
<feOffset dy="3"/>
<feGaussianBlur stdDeviation="2"/>
<feComposite in2="hardAlpha" operator="out"/>
<feColorMatrix type="matrix" values="0 0 0 0 0 0 0 0 0 0 0 0 0 0 0 0 0 0 0.25 0"/>
<feBlend mode="normal" in2="BackgroundImageFix" result="effect1_dropShadow_427_842"/>
<feBlend mode="normal" in="SourceGraphic" in2="effect1_dropShadow_427_842" result="shape"/>
</filter>
<clipPath id="clip0_427_842">
<rect width="360" height="228" fill="white" transform="translate(2 1)"/>
</clipPath>
</defs>
</svg>
