<svg width="360" height="220" viewBox="0 0 360 220" fill="none" xmlns="http://www.w3.org/2000/svg">
<g clip-path="url(#clip0_432_954)">
<rect width="360" height="220" fill="#0B334D"/>
<mask id="mask0_432_954" style="mask-type:luminance" maskUnits="userSpaceOnUse" x="40" y="-30" width="384" height="274">
<path d="M423.784 -29.9121H40V243.158H423.784V-29.9121Z" fill="white"/>
</mask>
<g mask="url(#mask0_432_954)">
<path d="M131.761 106.752C131.761 76.4686 105.825 51.9312 73.8156 51.9312C65.2251 51.9312 57.0723 53.6912 49.7402 56.9008C43.3383 72.3273 39.7817 89.2033 39.7817 106.804C39.7817 124.405 43.2836 141.229 49.7402 156.707C57.0723 159.865 65.2251 161.677 73.8156 161.677C105.825 161.573 131.761 137.036 131.761 106.752Z" fill="white" fill-opacity="0.03"/>
<path d="M279.386 -29.6533C218.377 -29.6533 166.232 6.22112 145.166 56.8491C152.498 53.6913 160.651 51.8795 169.241 51.8795C194.958 51.8795 216.735 67.7202 224.341 89.6175C231.947 67.7202 253.724 51.8795 279.441 51.8795C311.45 51.8795 337.386 76.417 337.386 106.701C337.386 136.984 311.45 161.522 279.441 161.522C253.724 161.522 231.947 145.681 224.341 123.784C216.735 145.681 194.958 161.522 169.241 161.522C160.651 161.522 152.498 159.762 145.166 156.552C166.232 207.284 218.377 243.158 279.386 243.158C358.999 243.158 423.565 182.073 423.565 106.752C423.565 31.4316 358.999 -29.6533 279.386 -29.6533Z" fill="white" fill-opacity="0.03"/>
</g>
</g>
<defs>
<clipPath id="clip0_432_954">
<rect width="360" height="220" fill="white"/>
</clipPath>
</defs>
</svg>
