<svg width="100" height="100" viewBox="0 0 100 100" fill="none" xmlns="http://www.w3.org/2000/svg">
<circle cx="50" cy="50" r="45.5" stroke="white" stroke-width="9"/>
<circle cx="50" cy="50" r="30.5" stroke="white" stroke-width="9"/>
<circle cx="50" cy="50" r="15.5" stroke="white" stroke-width="9"/>
<rect x="13" y="34" width="74" height="32" rx="16" fill="#0B334D"/>
<path d="M29.166 55.582C29.6387 55.582 30.0755 55.4854 30.4766 55.292C30.8776 55.0986 31.207 54.8337 31.4648 54.4971C31.7227 54.1533 31.8695 53.763 31.9053 53.3262H33.7959C33.7601 54.0137 33.5273 54.6546 33.0977 55.249C32.6751 55.8363 32.1201 56.3125 31.4326 56.6777C30.7451 57.0358 29.9896 57.2148 29.166 57.2148C28.2923 57.2148 27.5296 57.0609 26.8779 56.7529C26.2334 56.445 25.6963 56.0225 25.2666 55.4854C24.8441 54.9482 24.5254 54.3324 24.3105 53.6377C24.1029 52.9359 23.999 52.1947 23.999 51.4141V50.9629C23.999 50.1823 24.1029 49.4447 24.3105 48.75C24.5254 48.0482 24.8441 47.4287 25.2666 46.8916C25.6963 46.3545 26.2334 45.932 26.8779 45.624C27.5296 45.3161 28.2923 45.1621 29.166 45.1621C30.0755 45.1621 30.8704 45.3483 31.5508 45.7207C32.2311 46.0859 32.7646 46.5872 33.1514 47.2246C33.5452 47.8548 33.7601 48.571 33.7959 49.373H31.9053C31.8695 48.8932 31.7334 48.46 31.4971 48.0732C31.2679 47.6865 30.9528 47.3786 30.5518 47.1494C30.1579 46.9131 29.696 46.7949 29.166 46.7949C28.5573 46.7949 28.0452 46.9167 27.6299 47.1602C27.2217 47.3965 26.8958 47.7188 26.6523 48.127C26.416 48.528 26.2441 48.9756 26.1367 49.4697C26.0365 49.9567 25.9863 50.4544 25.9863 50.9629V51.4141C25.9863 51.9225 26.0365 52.4238 26.1367 52.918C26.237 53.4121 26.4053 53.8597 26.6416 54.2607C26.8851 54.6618 27.2109 54.984 27.6191 55.2275C28.0345 55.4639 28.5501 55.582 29.166 55.582ZM38.1895 40.5V57H36.1914V40.5H38.1895ZM48.2334 55.0127V49.0293C48.2334 48.571 48.1403 48.1735 47.9541 47.8369C47.7751 47.4932 47.5029 47.2282 47.1377 47.042C46.7725 46.8558 46.3213 46.7627 45.7842 46.7627C45.2829 46.7627 44.8424 46.8486 44.4629 47.0205C44.0905 47.1924 43.7969 47.418 43.582 47.6973C43.3743 47.9766 43.2705 48.2773 43.2705 48.5996H41.2832C41.2832 48.1842 41.3906 47.7725 41.6055 47.3643C41.8203 46.9561 42.1283 46.5872 42.5293 46.2578C42.9375 45.9212 43.4245 45.6562 43.9902 45.4629C44.5632 45.2624 45.2005 45.1621 45.9023 45.1621C46.7474 45.1621 47.4922 45.3053 48.1367 45.5918C48.7884 45.8783 49.2969 46.3115 49.6621 46.8916C50.0345 47.4645 50.2207 48.1842 50.2207 49.0508V54.4648C50.2207 54.8516 50.2529 55.2633 50.3174 55.7002C50.389 56.137 50.4928 56.513 50.6289 56.8281V57H48.5557C48.4554 56.7708 48.3766 56.4665 48.3193 56.0869C48.262 55.7002 48.2334 55.3421 48.2334 55.0127ZM48.5771 49.9531L48.5986 51.3496H46.5898C46.0241 51.3496 45.5192 51.3962 45.0752 51.4893C44.6312 51.5752 44.2588 51.7077 43.958 51.8867C43.6572 52.0658 43.4281 52.2913 43.2705 52.5635C43.113 52.8285 43.0342 53.14 43.0342 53.498C43.0342 53.8633 43.1165 54.1963 43.2812 54.4971C43.446 54.7979 43.693 55.0378 44.0225 55.2168C44.359 55.3887 44.7708 55.4746 45.2578 55.4746C45.8665 55.4746 46.4036 55.3457 46.8691 55.0879C47.3346 54.8301 47.7035 54.515 47.9756 54.1426C48.2549 53.7702 48.4053 53.4085 48.4268 53.0576L49.2754 54.0137C49.2253 54.3145 49.0892 54.6475 48.8672 55.0127C48.6452 55.3779 48.348 55.7288 47.9756 56.0654C47.6104 56.3949 47.1735 56.6706 46.665 56.8926C46.1637 57.1074 45.598 57.2148 44.9678 57.2148C44.18 57.2148 43.4889 57.0609 42.8945 56.7529C42.3073 56.445 41.849 56.0332 41.5195 55.5176C41.1973 54.9948 41.0361 54.4111 41.0361 53.7666C41.0361 53.1436 41.1579 52.5957 41.4014 52.123C41.6449 51.6432 41.9958 51.2458 42.4541 50.9307C42.9124 50.6084 43.4639 50.3649 44.1084 50.2002C44.7529 50.0355 45.4727 49.9531 46.2676 49.9531H48.5771ZM55.5059 45.377V57H53.5078V45.377H55.5059ZM53.3574 42.2939C53.3574 41.9717 53.4541 41.6995 53.6475 41.4775C53.848 41.2555 54.1416 41.1445 54.5283 41.1445C54.9079 41.1445 55.1979 41.2555 55.3984 41.4775C55.6061 41.6995 55.71 41.9717 55.71 42.2939C55.71 42.6019 55.6061 42.8669 55.3984 43.0889C55.1979 43.3037 54.9079 43.4111 54.5283 43.4111C54.1416 43.4111 53.848 43.3037 53.6475 43.0889C53.4541 42.8669 53.3574 42.6019 53.3574 42.2939ZM60.6729 47.6865V57H58.6748V45.377H60.5654L60.6729 47.6865ZM60.2646 50.748L59.3408 50.7158C59.348 49.9209 59.4518 49.1868 59.6523 48.5137C59.8529 47.8333 60.1501 47.2425 60.5439 46.7412C60.9378 46.2399 61.4284 45.8532 62.0156 45.5811C62.6029 45.3018 63.2832 45.1621 64.0566 45.1621C64.6009 45.1621 65.1022 45.2409 65.5605 45.3984C66.0189 45.5488 66.4163 45.7887 66.7529 46.1182C67.0895 46.4476 67.3509 46.8701 67.5371 47.3857C67.7233 47.9014 67.8164 48.5244 67.8164 49.2549V57H65.8291V49.3516C65.8291 48.7428 65.7253 48.2559 65.5176 47.8906C65.3171 47.5254 65.0306 47.2604 64.6582 47.0957C64.2858 46.9238 63.849 46.8379 63.3477 46.8379C62.7604 46.8379 62.2699 46.9417 61.876 47.1494C61.4821 47.3571 61.167 47.6436 60.9307 48.0088C60.6943 48.374 60.5225 48.793 60.415 49.2656C60.3148 49.7311 60.2646 50.2253 60.2646 50.748ZM67.7949 49.6523L66.4629 50.0605C66.4701 49.4232 66.5739 48.8109 66.7744 48.2236C66.9821 47.6364 67.2793 47.1136 67.666 46.6553C68.0599 46.1969 68.5433 45.8353 69.1162 45.5703C69.6891 45.2982 70.3444 45.1621 71.082 45.1621C71.7051 45.1621 72.2565 45.2445 72.7363 45.4092C73.2233 45.5739 73.6315 45.8281 73.9609 46.1719C74.2975 46.5085 74.5518 46.9417 74.7236 47.4717C74.8955 48.0016 74.9814 48.6318 74.9814 49.3623V57H72.9834V49.3408C72.9834 48.6891 72.8796 48.1842 72.6719 47.8262C72.4714 47.4609 72.1849 47.2067 71.8125 47.0635C71.4473 46.9131 71.0104 46.8379 70.502 46.8379C70.0651 46.8379 69.6784 46.9131 69.3418 47.0635C69.0052 47.2139 68.7223 47.4215 68.4932 47.6865C68.264 47.9443 68.0885 48.2415 67.9668 48.5781C67.8522 48.9147 67.7949 49.2728 67.7949 49.6523Z" fill="white"/>
</svg>
