<svg width="42" height="54" fill="none" xmlns="http://www.w3.org/2000/svg"><path d="M5.438 53.094v-3.766c0-.27-.045-.503-.133-.695a.988.988 0 0 0-.414-.461c-.183-.11-.42-.164-.711-.164-.25 0-.466.044-.649.133a.94.94 0 0 0-.422.367 1.015 1.015 0 0 0-.148.554H.71c0-.359.083-.7.25-1.023a2.55 2.55 0 0 1 .727-.852c.317-.25.695-.445 1.132-.585.443-.141.938-.211 1.485-.211.656 0 1.24.109 1.75.328.51.218.911.547 1.203.984.297.438.445.984.445 1.64v3.618c0 .464.029.844.086 1.14.057.292.14.547.25.766V55H5.766a3.25 3.25 0 0 1-.25-.86 7.082 7.082 0 0 1-.079-1.046zm.296-3.242.016 1.273H4.492c-.297 0-.554.034-.773.102a1.44 1.44 0 0 0-.54.289c-.14.12-.244.26-.312.422a1.46 1.46 0 0 0-.094.53c0 .193.045.368.133.524.089.151.216.271.383.36.167.083.362.125.586.125.339 0 .633-.068.883-.204.25-.135.443-.302.578-.5.14-.198.213-.385.219-.562l.593.953a3.859 3.859 0 0 1-.343.664c-.14.23-.32.445-.54.649a2.783 2.783 0 0 1-.788.492c-.308.125-.672.187-1.094.187a3.285 3.285 0 0 1-1.461-.32 2.663 2.663 0 0 1-1.031-.898 2.359 2.359 0 0 1-.375-1.313c0-.443.083-.836.25-1.18.166-.343.411-.633.734-.867.328-.24.737-.42 1.227-.539.49-.125 1.057-.187 1.703-.187h1.304zM11.813 43v12H9.555V43h2.258zm5.75 12.156c-.657 0-1.245-.104-1.766-.312a3.876 3.876 0 0 1-1.328-.883 3.923 3.923 0 0 1-.828-1.305 4.393 4.393 0 0 1-.29-1.593v-.313c0-.64.092-1.227.274-1.758.182-.531.443-.992.781-1.383.344-.39.76-.69 1.25-.898.49-.214 1.042-.32 1.656-.32.6 0 1.13.099 1.594.297.464.197.852.479 1.164.843.318.365.558.802.72 1.313.16.505.241 1.067.241 1.687v.938h-6.718v-1.5h4.507v-.172a1.95 1.95 0 0 0-.172-.836 1.326 1.326 0 0 0-.5-.594c-.224-.146-.51-.219-.859-.219-.297 0-.552.066-.766.196a1.51 1.51 0 0 0-.523.547c-.13.234-.23.51-.297.828a5.267 5.267 0 0 0-.094 1.031v.313c0 .338.047.65.141.937.099.286.237.534.414.742.182.209.401.37.656.485.26.114.555.171.883.171a2.74 2.74 0 0 0 1.133-.234c.354-.161.659-.404.914-.727l1.094 1.188c-.177.255-.42.5-.727.734a3.879 3.879 0 0 1-1.094.578 4.511 4.511 0 0 1-1.46.22zm7-6.765V55h-2.25v-8.453h2.117l.133 1.844zm2.546-1.899-.039 2.086a5.448 5.448 0 0 0-.398-.039 4.033 4.033 0 0 0-.414-.023c-.318 0-.594.041-.828.125-.23.078-.422.195-.578.351a1.533 1.533 0 0 0-.344.57c-.073.224-.115.48-.125.766l-.453-.14c0-.547.054-1.05.164-1.508.11-.464.268-.867.476-1.211.214-.344.474-.61.782-.797a1.984 1.984 0 0 1 1.054-.281c.125 0 .253.01.383.03.13.017.237.04.32.071zm5.594.055v1.594h-4.922v-1.594h4.922zM29 44.46h2.25v7.992c0 .245.031.432.094.563.067.13.166.221.297.273.13.047.294.07.492.07.14 0 .265-.005.375-.015.114-.016.21-.032.289-.047l.008 1.656a4.234 4.234 0 0 1-.625.149 4.644 4.644 0 0 1-.742.054c-.495 0-.928-.08-1.297-.242a1.786 1.786 0 0 1-.844-.797c-.198-.364-.297-.844-.297-1.437v-8.22zm9.555 8.203a.731.731 0 0 0-.14-.437c-.095-.13-.27-.25-.524-.36-.25-.114-.612-.219-1.086-.312a8.466 8.466 0 0 1-1.196-.352 4.147 4.147 0 0 1-.953-.523 2.276 2.276 0 0 1-.625-.72 1.999 1.999 0 0 1-.226-.96c0-.354.075-.688.226-1a2.58 2.58 0 0 1 .664-.828 3.142 3.142 0 0 1 1.063-.57 4.48 4.48 0 0 1 1.422-.211c.734 0 1.364.117 1.89.351.532.235.938.558 1.22.969.285.406.429.87.429 1.39h-2.25c0-.218-.047-.413-.14-.585a.927.927 0 0 0-.423-.414c-.187-.105-.432-.157-.734-.157-.25 0-.466.045-.649.133a.994.994 0 0 0-.421.344.826.826 0 0 0-.141.469c0 .13.026.247.078.351.057.1.148.19.273.274.126.083.287.161.485.234.203.068.453.13.75.188.61.124 1.154.289 1.633.492.479.198.86.468 1.14.812.282.339.422.784.422 1.336 0 .375-.083.719-.25 1.031a2.49 2.49 0 0 1-.719.82c-.312.23-.687.41-1.125.54-.432.125-.919.187-1.46.187-.787 0-1.454-.14-2-.422-.542-.28-.954-.638-1.235-1.07-.276-.437-.414-.885-.414-1.344h2.133c.01.308.088.555.234.742.151.188.341.323.57.407.235.083.488.125.758.125.292 0 .534-.04.727-.117.193-.084.339-.193.437-.329a.792.792 0 0 0 .157-.484z" fill="#fff"/><path d="M10.313 14.771c0-5.903 4.784-10.688 10.687-10.688 5.902 0 10.688 4.785 10.688 10.688v8.924a1.5 1.5 0 0 1-1.5 1.5H11.813a1.5 1.5 0 0 1-1.5-1.5V14.77z" stroke="#fff" stroke-width="3"/><ellipse cx="21" cy="2.583" rx="2.813" ry="2.583" fill="#fff"/><ellipse cx="8.813" cy="24.111" rx="2.813" ry="2.583" fill="#fff"/><ellipse cx="33.188" cy="24.111" rx="2.813" ry="2.583" fill="#fff"/><path d="M17.813 25.611h6.375v1.39a2.5 2.5 0 0 1-2.5 2.5h-1.375a2.5 2.5 0 0 1-2.5-2.5v-1.39z" stroke="#fff" stroke-width="3"/><circle cx="33" cy="7" r="5" fill="#FF0505"/></svg>