<svg width="252" height="219" fill="none" xmlns="http://www.w3.org/2000/svg"><g filter="url(#a)"><path d="M121.644 203.926 96.56 142.789H36.767C19.802 142.789 6 128.987 6 112.022V35.767C6 18.802 19.802 5 36.767 5H206.52c16.965 0 30.768 13.802 30.768 30.767v76.255c0 16.965-13.802 30.767-30.768 30.767h-59.792l-25.083 61.137zM36.767 12.118c-13.04 0-23.65 10.609-23.65 23.65v76.254c0 13.041 10.61 23.649 23.65 23.649h64.565l20.311 49.503 20.311-49.503h64.564c13.041 0 23.65-10.608 23.65-23.649V35.767c0-13.04-10.609-23.649-23.65-23.649H36.768z" fill="#00A4D7"/></g><rect x="12" y="12" width="218" height="124" rx="24" fill="#fff"/><path d="m121.5 186-20-50H142l-20.5 50z" fill="#fff"/><defs><filter id="a" x="0" y="0" width="251.287" height="218.926" filterUnits="userSpaceOnUse" color-interpolation-filters="sRGB"><feFlood flood-opacity="0" result="BackgroundImageFix"/><feColorMatrix in="SourceAlpha" values="0 0 0 0 0 0 0 0 0 0 0 0 0 0 0 0 0 0 127 0" result="hardAlpha"/><feOffset dx="4" dy="5"/><feGaussianBlur stdDeviation="5"/><feComposite in2="hardAlpha" operator="out"/><feColorMatrix values="0 0 0 0 0 0 0 0 0 0 0 0 0 0 0 0 0 0 0.25 0"/><feBlend in2="BackgroundImageFix" result="effect1_dropShadow_412_1091"/><feBlend in="SourceGraphic" in2="effect1_dropShadow_412_1091" result="shape"/></filter></defs></svg>