<svg width="235" height="241" fill="none" xmlns="http://www.w3.org/2000/svg"><g filter="url(#a)"><path d="m212.915 5-31.618 45.107c21.892 0 39.703 17.468 39.703 38.938v98.018C221 208.532 203.189 226 181.297 226H46.126c-21.893 0-39.703-17.468-39.703-38.937V89.045c0-21.47 17.811-38.938 39.703-38.938h87.742L212.915 5zm-31.618 213.07c17.434 0 31.618-13.911 31.618-31.008V89.044c0-17.098-14.184-31.008-31.618-31.008h-17.574L181.297 32.3l-42.886 25.736H46.126c-17.434 0-31.618 13.91-31.618 31.008v98.018c0 17.097 14.184 31.008 31.618 31.008h135.171z" fill="#00A4D7"/></g><rect x="15" y="57" width="198" height="162.933" rx="36" fill="#fff"/><path d="m187.5 28.833-21 28.6h-28l49-28.6z" fill="#fff"/><defs><filter id="a" x=".423" y="0" width="234.577" height="241" filterUnits="userSpaceOnUse" color-interpolation-filters="sRGB"><feFlood flood-opacity="0" result="BackgroundImageFix"/><feColorMatrix in="SourceAlpha" values="0 0 0 0 0 0 0 0 0 0 0 0 0 0 0 0 0 0 127 0" result="hardAlpha"/><feOffset dx="4" dy="5"/><feGaussianBlur stdDeviation="5"/><feComposite in2="hardAlpha" operator="out"/><feColorMatrix values="0 0 0 0 0 0 0 0 0 0 0 0 0 0 0 0 0 0 0.26 0"/><feBlend in2="BackgroundImageFix" result="effect1_dropShadow_409_1069"/><feBlend in="SourceGraphic" in2="effect1_dropShadow_409_1069" result="shape"/></filter></defs></svg>