<svg width="46" height="62" fill="none" xmlns="http://www.w3.org/2000/svg"><path d="M11.476 62V14.367H24.79c3.904 0 7.404.894 10.501 2.683 3.097 1.766 5.507 4.307 7.23 7.622 1.745 3.316 2.617 7.089 2.617 11.32v4.384c0 4.252-.861 8.026-2.584 11.319-1.723 3.293-4.155 5.834-7.296 7.622C32.141 61.106 28.553 62 24.496 62h-13.02zM15.5 17.802v40.796h9.029c5.016 0 9.04-1.658 12.072-4.973 3.031-3.337 4.547-7.84 4.547-13.511v-4.188c0-5.474-1.494-9.858-4.482-13.151-2.988-3.293-6.925-4.95-11.81-4.973H15.5z" fill="#fff"/><path d="M24.219 42.977c-.352 3.007-1.465 5.332-3.34 6.972-1.862 1.628-4.343 2.442-7.442 2.442-3.359 0-6.054-1.205-8.085-3.614-2.019-2.409-3.028-5.631-3.028-9.668v-2.734c0-2.643.469-4.967 1.406-6.973.951-2.005 2.292-3.541 4.024-4.609 1.732-1.08 3.737-1.621 6.016-1.621 3.02 0 5.442.846 7.265 2.539 1.823 1.68 2.884 4.01 3.184 6.992h-3.77c-.325-2.266-1.035-3.906-2.129-4.922-1.08-1.015-2.597-1.523-4.55-1.523-2.396 0-4.278.885-5.645 2.656-1.354 1.77-2.031 4.29-2.031 7.559v2.754c0 3.086.644 5.54 1.933 7.363 1.29 1.823 3.093 2.734 5.41 2.734 2.084 0 3.679-.468 4.786-1.406 1.12-.95 1.862-2.598 2.226-4.941h3.77z" fill="#fff"/></svg>