<svg xmlns="http://www.w3.org/2000/svg" width="256" height="256" xml:space="preserve"><g style="stroke:none;stroke-width:0;stroke-dasharray:none;stroke-linecap:butt;stroke-linejoin:miter;stroke-miterlimit:10;fill:none;fill-rule:nonzero;opacity:1"><path d="M72.002 10.915H17.998a5.675 5.675 0 0 0-5.675 5.675v7.049h65.354V16.59a5.675 5.675 0 0 0-5.675-5.675z" style="stroke:none;stroke-width:1;stroke-dasharray:none;stroke-linecap:butt;stroke-linejoin:miter;stroke-miterlimit:10;fill:#fff;fill-rule:nonzero;opacity:1" transform="matrix(2.81 0 0 2.81 1.407 1.407)"/><path d="M57.546 15.544H32.454a2.57 2.57 0 0 1-2.571-2.571V6.19A6.197 6.197 0 0 1 36.073 0h17.854a6.198 6.198 0 0 1 6.191 6.19v6.782a2.573 2.573 0 0 1-2.572 2.572zm-22.52-5.143h19.949V6.19c0-.578-.47-1.047-1.048-1.047H36.073c-.578 0-1.047.47-1.047 1.047v4.211zM74.016 28.782H15.984v55.543A5.675 5.675 0 0 0 21.659 90h46.682a5.675 5.675 0 0 0 5.675-5.675V28.782zM31.915 79.328a2.57 2.57 0 1 1-5.142 0V41.509a2.57 2.57 0 1 1 5.142 0v37.819zm15.656 0a2.57 2.57 0 1 1-5.142 0V41.509a2.57 2.57 0 1 1 5.142 0v37.819zm15.657 0a2.57 2.57 0 1 1-5.142 0V41.509a2.57 2.57 0 1 1 5.142 0v37.819z" style="stroke:none;stroke-width:1;stroke-dasharray:none;stroke-linecap:butt;stroke-linejoin:miter;stroke-miterlimit:10;fill:#fff;fill-rule:nonzero;opacity:1" transform="matrix(2.81 0 0 2.81 1.407 1.407)"/></g></svg>