<svg width="26" height="26" viewBox="0 0 26 26" fill="none" xmlns="http://www.w3.org/2000/svg">
<g clip-path="url(#clip0_745_935)">
<circle cx="13" cy="13" r="13" fill="#00A4D7"/>
<path d="M13 22.1667C10.5688 22.1667 8.23727 21.2009 6.51819 19.4818C4.7991 17.7627 3.83333 15.4312 3.83333 13C3.83333 10.5688 4.7991 8.23727 6.51819 6.51819C8.23727 4.7991 10.5688 3.83333 13 3.83333C15.4312 3.83333 17.7627 4.7991 19.4818 6.51819C21.2009 8.23727 22.1667 10.5688 22.1667 13C22.1667 15.4312 21.2009 17.7627 19.4818 19.4818C17.7627 21.2009 15.4312 22.1667 13 22.1667ZM13 24C14.4445 24 15.8749 23.7155 17.2095 23.1627C18.5441 22.6099 19.7567 21.7996 20.7782 20.7782C21.7996 19.7567 22.6099 18.5441 23.1627 17.2095C23.7155 15.8749 24 14.4445 24 13C24 11.5555 23.7155 10.1251 23.1627 8.79048C22.6099 7.4559 21.7996 6.24327 20.7782 5.22183C19.7567 4.20038 18.5441 3.39013 17.2095 2.83733C15.8749 2.28452 14.4445 2 13 2C10.0826 2 7.28473 3.15893 5.22183 5.22183C3.15893 7.28473 2 10.0826 2 13C2 15.9174 3.15893 18.7153 5.22183 20.7782C7.28473 22.8411 10.0826 24 13 24Z" fill="white"/>
<path d="M13 18.25C11.6076 18.25 10.2723 17.6969 9.28769 16.7123C8.30312 15.7277 7.75 14.3924 7.75 13C7.75 11.6076 8.30312 10.2723 9.28769 9.28769C10.2723 8.30312 11.6076 7.75 13 7.75C14.3924 7.75 15.7277 8.30312 16.7123 9.28769C17.6969 10.2723 18.25 11.6076 18.25 13C18.25 14.3924 17.6969 15.7277 16.7123 16.7123C15.7277 17.6969 14.3924 18.25 13 18.25ZM13 20C14.8565 20 16.637 19.2625 17.9497 17.9497C19.2625 16.637 20 14.8565 20 13C20 11.1435 19.2625 9.36301 17.9497 8.05025C16.637 6.7375 14.8565 6 13 6C11.1435 6 9.36301 6.7375 8.05025 8.05025C6.7375 9.36301 6 11.1435 6 13C6 14.8565 6.7375 16.637 8.05025 17.9497C9.36301 19.2625 11.1435 20 13 20Z" fill="white"/>
<path d="M16 13C16 13.7956 15.6839 14.5587 15.1213 15.1213C14.5587 15.6839 13.7956 16 13 16C12.2044 16 11.4413 15.6839 10.8787 15.1213C10.3161 14.5587 10 13.7956 10 13C10 12.2044 10.3161 11.4413 10.8787 10.8787C11.4413 10.3161 12.2044 10 13 10C13.7956 10 14.5587 10.3161 15.1213 10.8787C15.6839 11.4413 16 12.2044 16 13Z" fill="white"/>
</g>
<defs>
<clipPath id="clip0_745_935">
<rect width="26" height="26" fill="white"/>
</clipPath>
</defs>
</svg>
