<svg width="55" height="42" fill="none" xmlns="http://www.w3.org/2000/svg"><path d="M13.15 20.703A8.303 8.303 0 0 0 1.396 13.15a20.668 20.668 0 0 0-1.427 7.56c0 2.666.502 5.214 1.427 7.559 1.05.478 2.219.752 3.45.752 4.587-.015 8.304-3.732 8.304-8.32zM34.306.04c-8.743 0-16.216 5.434-19.235 13.103a8.312 8.312 0 0 1 3.45-.753c3.686 0 6.807 2.4 7.897 5.717a8.315 8.315 0 0 1 7.896-5.717 8.303 8.303 0 0 1 8.304 8.304A8.303 8.303 0 0 1 34.314 29a8.315 8.315 0 0 1-7.896-5.717 8.314 8.314 0 0 1-7.896 5.716c-1.231 0-2.4-.266-3.45-.752 3.018 7.684 10.491 13.119 19.234 13.119 11.41 0 20.663-9.253 20.663-20.663C54.969 9.293 45.716.04 34.306.04z" fill="#0B334D"/></svg>