<svg xmlns="http://www.w3.org/2000/svg" xmlns:xlink="http://www.w3.org/1999/xlink" viewBox="0 0 960 560" style="enable-background:new 0 0 960 560" xml:space="preserve"><defs><path id="a" d="M123.3 18.5h701.4V546H123.3z"/></defs><clipPath id="b"><use xlink:href="#a" style="overflow:visible"/></clipPath><g style="clip-path:url(#b)"><path d="M560.8 19C449.3 19 354 88.3 315.5 186.1c13.4-6.1 28.3-9.6 44-9.6 47 0 86.8 30.6 100.7 72.9 13.9-42.3 53.7-72.9 100.7-72.9 58.5 0 105.9 47.4 105.9 105.9s-47.4 105.9-105.9 105.9c-47 0-86.8-30.6-100.7-72.9-13.9 42.3-53.7 72.9-100.7 72.9-15.7 0-30.6-3.4-44-9.6C354 476.7 449.3 546 560.8 546c145.5 0 263.5-118 263.5-263.5S706.3 19 560.8 19z" style="fill:#fff"/></g></svg>