<svg width="58" height="53" viewBox="0 0 58 53" fill="none" xmlns="http://www.w3.org/2000/svg">
<path d="M3.125 46.3906V53H0.875V44.5469H2.99219L3.125 46.3906ZM5.67188 44.4922L5.63281 46.5781C5.52344 46.5625 5.39062 46.5495 5.23438 46.5391C5.08333 46.5234 4.94531 46.5156 4.82031 46.5156C4.5026 46.5156 4.22656 46.5573 3.99219 46.6406C3.76302 46.7188 3.57031 46.8359 3.41406 46.9922C3.26302 47.1484 3.14844 47.3385 3.07031 47.5625C2.9974 47.7865 2.95573 48.0417 2.94531 48.3281L2.49219 48.1875C2.49219 47.6406 2.54688 47.138 2.65625 46.6797C2.76562 46.2161 2.92448 45.8125 3.13281 45.4688C3.34635 45.125 3.60677 44.8594 3.91406 44.6719C4.22135 44.4844 4.57292 44.3906 4.96875 44.3906C5.09375 44.3906 5.22135 44.401 5.35156 44.4219C5.48177 44.4375 5.58854 44.4609 5.67188 44.4922ZM10.4688 53.1562C9.8125 53.1562 9.22396 53.0521 8.70312 52.8438C8.18229 52.6302 7.73958 52.3359 7.375 51.9609C7.01562 51.5859 6.73958 51.151 6.54688 50.6562C6.35417 50.1562 6.25781 49.625 6.25781 49.0625V48.75C6.25781 48.1094 6.34896 47.5234 6.53125 46.9922C6.71354 46.4609 6.97396 46 7.3125 45.6094C7.65625 45.2188 8.07292 44.9193 8.5625 44.7109C9.05208 44.4974 9.60417 44.3906 10.2188 44.3906C10.8177 44.3906 11.349 44.4896 11.8125 44.6875C12.276 44.8854 12.6641 45.1667 12.9766 45.5312C13.2943 45.8958 13.5339 46.3333 13.6953 46.8438C13.8568 47.349 13.9375 47.9115 13.9375 48.5312V49.4688H7.21875V47.9688H11.7266V47.7969C11.7266 47.4844 11.6693 47.2057 11.5547 46.9609C11.4453 46.7109 11.2786 46.513 11.0547 46.3672C10.8307 46.2214 10.5443 46.1484 10.1953 46.1484C9.89844 46.1484 9.64323 46.2135 9.42969 46.3438C9.21615 46.474 9.04167 46.6562 8.90625 46.8906C8.77604 47.125 8.67708 47.401 8.60938 47.7188C8.54688 48.0312 8.51562 48.375 8.51562 48.75V49.0625C8.51562 49.401 8.5625 49.7135 8.65625 50C8.75521 50.2865 8.89323 50.5339 9.07031 50.7422C9.2526 50.9505 9.47135 51.112 9.72656 51.2266C9.98698 51.3411 10.2812 51.3984 10.6094 51.3984C11.0156 51.3984 11.3932 51.3203 11.7422 51.1641C12.0964 51.0026 12.401 50.7604 12.6562 50.4375L13.75 51.625C13.5729 51.8802 13.3307 52.125 13.0234 52.3594C12.7214 52.5938 12.3568 52.7865 11.9297 52.9375C11.5026 53.0833 11.0156 53.1562 10.4688 53.1562ZM17.6328 50.8125L19.3906 44.5469H20.8203L20.3594 47.0078L18.6016 53H17.4062L17.6328 50.8125ZM16.7422 44.5469L18 50.8047L18.1172 53H16.7109L14.5703 44.5469H16.7422ZM22.4297 50.7031L23.6562 44.5469H25.8359L23.6953 53H22.2969L22.4297 50.7031ZM21.0156 44.5469L22.7656 50.7656L23.0078 53H21.8047L20.0469 47.0156L19.6016 44.5469H21.0156ZM31.5312 51.0938V47.3281C31.5312 47.0573 31.487 46.8255 31.3984 46.6328C31.3099 46.4349 31.1719 46.2812 30.9844 46.1719C30.8021 46.0625 30.5651 46.0078 30.2734 46.0078C30.0234 46.0078 29.8073 46.0521 29.625 46.1406C29.4427 46.224 29.3021 46.3464 29.2031 46.5078C29.1042 46.6641 29.0547 46.849 29.0547 47.0625H26.8047C26.8047 46.7031 26.888 46.362 27.0547 46.0391C27.2214 45.7161 27.4635 45.4323 27.7812 45.1875C28.099 44.9375 28.4766 44.7422 28.9141 44.6016C29.3568 44.4609 29.8516 44.3906 30.3984 44.3906C31.0547 44.3906 31.638 44.5 32.1484 44.7188C32.6589 44.9375 33.0599 45.2656 33.3516 45.7031C33.6484 46.1406 33.7969 46.6875 33.7969 47.3438V50.9609C33.7969 51.4245 33.8255 51.8047 33.8828 52.1016C33.9401 52.3932 34.0234 52.6484 34.1328 52.8672V53H31.8594C31.75 52.7708 31.6667 52.4844 31.6094 52.1406C31.5573 51.7917 31.5312 51.4427 31.5312 51.0938ZM31.8281 47.8516L31.8438 49.125H30.5859C30.2891 49.125 30.0312 49.1589 29.8125 49.2266C29.5938 49.2943 29.4141 49.3906 29.2734 49.5156C29.1328 49.6354 29.0286 49.776 28.9609 49.9375C28.8984 50.099 28.8672 50.276 28.8672 50.4688C28.8672 50.6615 28.9115 50.8359 29 50.9922C29.0885 51.1432 29.2161 51.263 29.3828 51.3516C29.5495 51.4349 29.7448 51.4766 29.9688 51.4766C30.3073 51.4766 30.6016 51.4089 30.8516 51.2734C31.1016 51.138 31.2943 50.9714 31.4297 50.7734C31.5703 50.5755 31.6432 50.388 31.6484 50.2109L32.2422 51.1641C32.1589 51.3776 32.0443 51.599 31.8984 51.8281C31.7578 52.0573 31.5781 52.2734 31.3594 52.4766C31.1406 52.6745 30.8776 52.8385 30.5703 52.9688C30.263 53.0938 29.8984 53.1562 29.4766 53.1562C28.9401 53.1562 28.4531 53.0495 28.0156 52.8359C27.5833 52.6172 27.2396 52.3177 26.9844 51.9375C26.7344 51.5521 26.6094 51.1146 26.6094 50.625C26.6094 50.1823 26.6927 49.7891 26.8594 49.4453C27.026 49.1016 27.2708 48.8125 27.5938 48.5781C27.9219 48.3385 28.3307 48.1589 28.8203 48.0391C29.3099 47.9141 29.8776 47.8516 30.5234 47.8516H31.8281ZM37.7812 46.3906V53H35.5312V44.5469H37.6484L37.7812 46.3906ZM40.3281 44.4922L40.2891 46.5781C40.1797 46.5625 40.0469 46.5495 39.8906 46.5391C39.7396 46.5234 39.6016 46.5156 39.4766 46.5156C39.1589 46.5156 38.8828 46.5573 38.6484 46.6406C38.4193 46.7188 38.2266 46.8359 38.0703 46.9922C37.9193 47.1484 37.8047 47.3385 37.7266 47.5625C37.6536 47.7865 37.612 48.0417 37.6016 48.3281L37.1484 48.1875C37.1484 47.6406 37.2031 47.138 37.3125 46.6797C37.4219 46.2161 37.5807 45.8125 37.7891 45.4688C38.0026 45.125 38.263 44.8594 38.5703 44.6719C38.8776 44.4844 39.2292 44.3906 39.625 44.3906C39.75 44.3906 39.8776 44.401 40.0078 44.4219C40.138 44.4375 40.2448 44.4609 40.3281 44.4922ZM46.2266 51.1562V41H48.4922V53H46.4531L46.2266 51.1562ZM40.8828 48.875V48.7109C40.8828 48.0651 40.9557 47.4792 41.1016 46.9531C41.2474 46.4219 41.4609 45.9661 41.7422 45.5859C42.0234 45.2057 42.3698 44.9115 42.7812 44.7031C43.1927 44.4948 43.6615 44.3906 44.1875 44.3906C44.6823 44.3906 45.1146 44.4948 45.4844 44.7031C45.8594 44.9115 46.1771 45.2083 46.4375 45.5938C46.7031 45.974 46.9167 46.4245 47.0781 46.9453C47.2396 47.4609 47.3568 48.026 47.4297 48.6406V49C47.3568 49.5885 47.2396 50.1354 47.0781 50.6406C46.9167 51.1458 46.7031 51.5885 46.4375 51.9688C46.1771 52.3438 45.8594 52.6354 45.4844 52.8438C45.1094 53.0521 44.6719 53.1562 44.1719 53.1562C43.6458 53.1562 43.1771 53.0495 42.7656 52.8359C42.3594 52.6224 42.0156 52.3229 41.7344 51.9375C41.4583 51.5521 41.2474 51.099 41.1016 50.5781C40.9557 50.0573 40.8828 49.4896 40.8828 48.875ZM43.1328 48.7109V48.875C43.1328 49.224 43.1589 49.5495 43.2109 49.8516C43.2682 50.1536 43.3594 50.4219 43.4844 50.6562C43.6146 50.8854 43.7812 51.0651 43.9844 51.1953C44.1927 51.3203 44.4453 51.3828 44.7422 51.3828C45.1276 51.3828 45.4453 51.2969 45.6953 51.125C45.9453 50.9479 46.1354 50.7057 46.2656 50.3984C46.401 50.0911 46.4792 49.737 46.5 49.3359V48.3125C46.4844 47.9844 46.4375 47.6901 46.3594 47.4297C46.2865 47.1641 46.1771 46.9375 46.0312 46.75C45.8906 46.5625 45.7135 46.4167 45.5 46.3125C45.2917 46.2083 45.0443 46.1562 44.7578 46.1562C44.4661 46.1562 44.2161 46.224 44.0078 46.3594C43.7995 46.4896 43.6302 46.6693 43.5 46.8984C43.375 47.1276 43.2812 47.3984 43.2188 47.7109C43.1615 48.0182 43.1328 48.3516 43.1328 48.7109ZM54.8203 50.6641C54.8203 50.5026 54.7734 50.3568 54.6797 50.2266C54.5859 50.0964 54.4115 49.9766 54.1562 49.8672C53.9062 49.7526 53.5443 49.6484 53.0703 49.5547C52.6432 49.4609 52.2448 49.3438 51.875 49.2031C51.5104 49.0573 51.1927 48.8828 50.9219 48.6797C50.6562 48.4766 50.4479 48.237 50.2969 47.9609C50.1458 47.6797 50.0703 47.3594 50.0703 47C50.0703 46.6458 50.1458 46.3125 50.2969 46C50.4531 45.6875 50.6745 45.4115 50.9609 45.1719C51.2526 44.9271 51.6068 44.737 52.0234 44.6016C52.4453 44.4609 52.9193 44.3906 53.4453 44.3906C54.1797 44.3906 54.8099 44.5078 55.3359 44.7422C55.8672 44.9766 56.2734 45.2995 56.5547 45.7109C56.8411 46.1172 56.9844 46.5807 56.9844 47.1016H54.7344C54.7344 46.8828 54.6875 46.6875 54.5938 46.5156C54.5052 46.3385 54.3646 46.2005 54.1719 46.1016C53.9844 45.9974 53.7396 45.9453 53.4375 45.9453C53.1875 45.9453 52.9714 45.9896 52.7891 46.0781C52.6068 46.1615 52.4661 46.276 52.3672 46.4219C52.2734 46.5625 52.2266 46.7188 52.2266 46.8906C52.2266 47.0208 52.2526 47.138 52.3047 47.2422C52.362 47.3411 52.4531 47.4323 52.5781 47.5156C52.7031 47.599 52.8646 47.6771 53.0625 47.75C53.2656 47.8177 53.5156 47.8802 53.8125 47.9375C54.4219 48.0625 54.9661 48.2266 55.4453 48.4297C55.9245 48.6276 56.3047 48.8984 56.5859 49.2422C56.8672 49.5807 57.0078 50.026 57.0078 50.5781C57.0078 50.9531 56.9245 51.2969 56.7578 51.6094C56.5911 51.9219 56.3516 52.1953 56.0391 52.4297C55.7266 52.6589 55.3516 52.8385 54.9141 52.9688C54.4818 53.0938 53.9948 53.1562 53.4531 53.1562C52.6667 53.1562 52 53.0156 51.4531 52.7344C50.9115 52.4531 50.5 52.0964 50.2188 51.6641C49.9427 51.2266 49.8047 50.7786 49.8047 50.3203H51.9375C51.9479 50.6276 52.026 50.875 52.1719 51.0625C52.3229 51.25 52.513 51.3854 52.7422 51.4688C52.9766 51.5521 53.2292 51.5938 53.5 51.5938C53.7917 51.5938 54.0339 51.5547 54.2266 51.4766C54.4193 51.3932 54.5651 51.2839 54.6641 51.1484C54.7682 51.0078 54.8203 50.8464 54.8203 50.6641Z" fill="white"/>
<path d="M29 4.8541L31.1656 11.5193L31.5024 12.5557H32.5922H39.6004L33.9307 16.675L33.049 17.3156L33.3858 18.3521L35.5514 25.0172L29.8817 20.8979L29 20.2574L28.1183 20.8979L22.4486 25.0172L24.6142 18.3521L24.951 17.3156L24.0693 16.675L18.3996 12.5557H25.4078H26.4976L26.8344 11.5193L29 4.8541Z" stroke="white" stroke-width="3"/>
</svg>
