<svg width="22" height="31" viewBox="0 0 22 31" fill="none" xmlns="http://www.w3.org/2000/svg">
<path fill-rule="evenodd" clip-rule="evenodd" d="M7.85712 10H5C2.23858 10 0 12.2386 0 15V26C0 28.7614 2.23858 31 5 31H17C19.7614 31 22 28.7614 22 26V15C22 12.2386 19.7614 10 17 10H14.1428V12H17C18.6569 12 20 13.3431 20 15V26C20 27.6569 18.6569 29 17 29H5C3.34315 29 2 27.6569 2 26V15C2 13.3431 3.34315 12 5 12H7.85712V10Z" fill="white"/>
<path d="M11.7071 0.292892C11.3166 -0.0976318 10.6834 -0.0976318 10.2929 0.292892L3.92893 6.65685C3.53841 7.04738 3.53841 7.68054 3.92893 8.07107C4.31946 8.46159 4.95262 8.46159 5.34315 8.07107L11 2.41421L16.6569 8.07107C17.0474 8.46159 17.6805 8.46159 18.0711 8.07107C18.4616 7.68054 18.4616 7.04738 18.0711 6.65685L11.7071 0.292892ZM12 20L12 0.999999H10L10 20H12Z" fill="white"/>
</svg>
