<svg width="39" height="53" viewBox="0 0 39 53" fill="none" xmlns="http://www.w3.org/2000/svg">
<path d="M5.01562 44.5469V46.1406H0.09375V44.5469H5.01562ZM1.3125 42.4609H3.5625V50.4531C3.5625 50.6979 3.59375 50.8854 3.65625 51.0156C3.72396 51.1458 3.82292 51.237 3.95312 51.2891C4.08333 51.3359 4.2474 51.3594 4.44531 51.3594C4.58594 51.3594 4.71094 51.3542 4.82031 51.3438C4.9349 51.3281 5.03125 51.3125 5.10938 51.2969L5.11719 52.9531C4.92448 53.0156 4.71615 53.0651 4.49219 53.1016C4.26823 53.138 4.02083 53.1562 3.75 53.1562C3.25521 53.1562 2.82292 53.0755 2.45312 52.9141C2.08854 52.7474 1.80729 52.4818 1.60938 52.1172C1.41146 51.7526 1.3125 51.2734 1.3125 50.6797V42.4609ZM10.8594 51.0938V47.3281C10.8594 47.0573 10.8151 46.8255 10.7266 46.6328C10.638 46.4349 10.5 46.2812 10.3125 46.1719C10.1302 46.0625 9.89323 46.0078 9.60156 46.0078C9.35156 46.0078 9.13542 46.0521 8.95312 46.1406C8.77083 46.224 8.63021 46.3464 8.53125 46.5078C8.43229 46.6641 8.38281 46.849 8.38281 47.0625H6.13281C6.13281 46.7031 6.21615 46.362 6.38281 46.0391C6.54948 45.7161 6.79167 45.4323 7.10938 45.1875C7.42708 44.9375 7.80469 44.7422 8.24219 44.6016C8.6849 44.4609 9.17969 44.3906 9.72656 44.3906C10.3828 44.3906 10.9661 44.5 11.4766 44.7188C11.987 44.9375 12.388 45.2656 12.6797 45.7031C12.9766 46.1406 13.125 46.6875 13.125 47.3438V50.9609C13.125 51.4245 13.1536 51.8047 13.2109 52.1016C13.2682 52.3932 13.3516 52.6484 13.4609 52.8672V53H11.1875C11.0781 52.7708 10.9948 52.4844 10.9375 52.1406C10.8854 51.7917 10.8594 51.4427 10.8594 51.0938ZM11.1562 47.8516L11.1719 49.125H9.91406C9.61719 49.125 9.35938 49.1589 9.14062 49.2266C8.92188 49.2943 8.74219 49.3906 8.60156 49.5156C8.46094 49.6354 8.35677 49.776 8.28906 49.9375C8.22656 50.099 8.19531 50.276 8.19531 50.4688C8.19531 50.6615 8.23958 50.8359 8.32812 50.9922C8.41667 51.1432 8.54427 51.263 8.71094 51.3516C8.8776 51.4349 9.07292 51.4766 9.29688 51.4766C9.63542 51.4766 9.92969 51.4089 10.1797 51.2734C10.4297 51.138 10.6224 50.9714 10.7578 50.7734C10.8984 50.5755 10.9714 50.388 10.9766 50.2109L11.5703 51.1641C11.487 51.3776 11.3724 51.599 11.2266 51.8281C11.0859 52.0573 10.9062 52.2734 10.6875 52.4766C10.4688 52.6745 10.2057 52.8385 9.89844 52.9688C9.59115 53.0938 9.22656 53.1562 8.80469 53.1562C8.26823 53.1562 7.78125 53.0495 7.34375 52.8359C6.91146 52.6172 6.56771 52.3177 6.3125 51.9375C6.0625 51.5521 5.9375 51.1146 5.9375 50.625C5.9375 50.1823 6.02083 49.7891 6.1875 49.4453C6.35417 49.1016 6.59896 48.8125 6.92188 48.5781C7.25 48.3385 7.65885 48.1589 8.14844 48.0391C8.63802 47.9141 9.20573 47.8516 9.85156 47.8516H11.1562ZM19.4297 50.6641C19.4297 50.5026 19.3828 50.3568 19.2891 50.2266C19.1953 50.0964 19.0208 49.9766 18.7656 49.8672C18.5156 49.7526 18.1536 49.6484 17.6797 49.5547C17.2526 49.4609 16.8542 49.3438 16.4844 49.2031C16.1198 49.0573 15.8021 48.8828 15.5312 48.6797C15.2656 48.4766 15.0573 48.237 14.9062 47.9609C14.7552 47.6797 14.6797 47.3594 14.6797 47C14.6797 46.6458 14.7552 46.3125 14.9062 46C15.0625 45.6875 15.2839 45.4115 15.5703 45.1719C15.862 44.9271 16.2161 44.737 16.6328 44.6016C17.0547 44.4609 17.5286 44.3906 18.0547 44.3906C18.7891 44.3906 19.4193 44.5078 19.9453 44.7422C20.4766 44.9766 20.8828 45.2995 21.1641 45.7109C21.4505 46.1172 21.5938 46.5807 21.5938 47.1016H19.3438C19.3438 46.8828 19.2969 46.6875 19.2031 46.5156C19.1146 46.3385 18.974 46.2005 18.7812 46.1016C18.5938 45.9974 18.349 45.9453 18.0469 45.9453C17.7969 45.9453 17.5807 45.9896 17.3984 46.0781C17.2161 46.1615 17.0755 46.276 16.9766 46.4219C16.8828 46.5625 16.8359 46.7188 16.8359 46.8906C16.8359 47.0208 16.862 47.138 16.9141 47.2422C16.9714 47.3411 17.0625 47.4323 17.1875 47.5156C17.3125 47.599 17.474 47.6771 17.6719 47.75C17.875 47.8177 18.125 47.8802 18.4219 47.9375C19.0312 48.0625 19.5755 48.2266 20.0547 48.4297C20.5339 48.6276 20.9141 48.8984 21.1953 49.2422C21.4766 49.5807 21.6172 50.026 21.6172 50.5781C21.6172 50.9531 21.5339 51.2969 21.3672 51.6094C21.2005 51.9219 20.9609 52.1953 20.6484 52.4297C20.3359 52.6589 19.9609 52.8385 19.5234 52.9688C19.0911 53.0938 18.6042 53.1562 18.0625 53.1562C17.276 53.1562 16.6094 53.0156 16.0625 52.7344C15.5208 52.4531 15.1094 52.0964 14.8281 51.6641C14.5521 51.2266 14.4141 50.7786 14.4141 50.3203H16.5469C16.5573 50.6276 16.6354 50.875 16.7812 51.0625C16.9323 51.25 17.1224 51.3854 17.3516 51.4688C17.5859 51.5521 17.8385 51.5938 18.1094 51.5938C18.401 51.5938 18.6432 51.5547 18.8359 51.4766C19.0286 51.3932 19.1745 51.2839 19.2734 51.1484C19.3776 51.0078 19.4297 50.8464 19.4297 50.6641ZM25.3281 40.9922V53H23.0781V40.9922H25.3281ZM30.6562 44.5469L26.9844 48.7344L25.0156 50.7266L24.1953 49.1016L25.7578 47.1172L27.9531 44.5469H30.6562ZM28.3203 53L25.8203 49.0938L27.375 47.7344L30.9141 53H28.3203ZM36.1953 50.6641C36.1953 50.5026 36.1484 50.3568 36.0547 50.2266C35.9609 50.0964 35.7865 49.9766 35.5312 49.8672C35.2812 49.7526 34.9193 49.6484 34.4453 49.5547C34.0182 49.4609 33.6198 49.3438 33.25 49.2031C32.8854 49.0573 32.5677 48.8828 32.2969 48.6797C32.0312 48.4766 31.8229 48.237 31.6719 47.9609C31.5208 47.6797 31.4453 47.3594 31.4453 47C31.4453 46.6458 31.5208 46.3125 31.6719 46C31.8281 45.6875 32.0495 45.4115 32.3359 45.1719C32.6276 44.9271 32.9818 44.737 33.3984 44.6016C33.8203 44.4609 34.2943 44.3906 34.8203 44.3906C35.5547 44.3906 36.1849 44.5078 36.7109 44.7422C37.2422 44.9766 37.6484 45.2995 37.9297 45.7109C38.2161 46.1172 38.3594 46.5807 38.3594 47.1016H36.1094C36.1094 46.8828 36.0625 46.6875 35.9688 46.5156C35.8802 46.3385 35.7396 46.2005 35.5469 46.1016C35.3594 45.9974 35.1146 45.9453 34.8125 45.9453C34.5625 45.9453 34.3464 45.9896 34.1641 46.0781C33.9818 46.1615 33.8411 46.276 33.7422 46.4219C33.6484 46.5625 33.6016 46.7188 33.6016 46.8906C33.6016 47.0208 33.6276 47.138 33.6797 47.2422C33.737 47.3411 33.8281 47.4323 33.9531 47.5156C34.0781 47.599 34.2396 47.6771 34.4375 47.75C34.6406 47.8177 34.8906 47.8802 35.1875 47.9375C35.7969 48.0625 36.3411 48.2266 36.8203 48.4297C37.2995 48.6276 37.6797 48.8984 37.9609 49.2422C38.2422 49.5807 38.3828 50.026 38.3828 50.5781C38.3828 50.9531 38.2995 51.2969 38.1328 51.6094C37.9661 51.9219 37.7266 52.1953 37.4141 52.4297C37.1016 52.6589 36.7266 52.8385 36.2891 52.9688C35.8568 53.0938 35.3698 53.1562 34.8281 53.1562C34.0417 53.1562 33.375 53.0156 32.8281 52.7344C32.2865 52.4531 31.875 52.0964 31.5938 51.6641C31.3177 51.2266 31.1797 50.7786 31.1797 50.3203H33.3125C33.3229 50.6276 33.401 50.875 33.5469 51.0625C33.6979 51.25 33.888 51.3854 34.1172 51.4688C34.3516 51.5521 34.6042 51.5938 34.875 51.5938C35.1667 51.5938 35.4089 51.5547 35.6016 51.4766C35.7943 51.3932 35.9401 51.2839 36.0391 51.1484C36.1432 51.0078 36.1953 50.8464 36.1953 50.6641Z" fill="white"/>
<rect x="6.5" y="1.5" width="27" height="27" rx="5.5" stroke="white" stroke-width="3"/>
<circle cx="13.5" cy="9.5" r="1.5" fill="white"/>
<circle cx="13.5" cy="15.5" r="1.5" fill="white"/>
<circle cx="13.5" cy="21.5" r="1.5" fill="white"/>
<line x1="18.5" y1="9.5" x2="26.5" y2="9.5" stroke="white" stroke-width="3" stroke-linecap="round"/>
<line x1="18.5" y1="15.5" x2="26.5" y2="15.5" stroke="white" stroke-width="3" stroke-linecap="round"/>
<line x1="18.5" y1="21.5" x2="26.5" y2="21.5" stroke="white" stroke-width="3" stroke-linecap="round"/>
</svg>
