<svg width="26" height="26" viewBox="0 0 26 26" fill="none" xmlns="http://www.w3.org/2000/svg">
<g clip-path="url(#clip0_745_932)">
<circle cx="13" cy="13" r="13" fill="#00A4D7"/>
<path d="M19.696 6.45114C19.8069 6.33799 19.9393 6.24809 20.0854 6.18673C20.2314 6.12536 20.3883 6.09375 20.5467 6.09375C20.7052 6.09375 20.862 6.12536 21.0081 6.18673C21.1541 6.24809 21.2865 6.33799 21.3974 6.45114C21.8622 6.92077 21.8687 7.67964 21.4137 8.15739L11.805 19.5161C11.6959 19.6359 11.5635 19.7322 11.416 19.7991C11.2684 19.866 11.1087 19.902 10.9467 19.9051C10.7847 19.9081 10.6238 19.8781 10.4738 19.8168C10.3238 19.7555 10.1879 19.6643 10.0744 19.5486L4.22765 13.6239C4.00216 13.3939 3.87585 13.0847 3.87585 12.7626C3.87585 12.4406 4.00216 12.1314 4.22765 11.9014C4.33855 11.7882 4.47091 11.6983 4.61699 11.637C4.76306 11.5756 4.9199 11.544 5.07834 11.544C5.23678 11.544 5.39363 11.5756 5.5397 11.637C5.68577 11.6983 5.81813 11.7882 5.92903 11.9014L10.8885 16.9275L19.6635 6.48689C19.6736 6.47433 19.6845 6.4624 19.696 6.45114Z" fill="white"/>
</g>
<defs>
<clipPath id="clip0_745_932">
<rect width="26" height="26" fill="white"/>
</clipPath>
</defs>
</svg>
