<svg width="26" height="26" viewBox="0 0 26 26" fill="none" xmlns="http://www.w3.org/2000/svg">
<g clip-path="url(#clip0_758_920)">
<circle cx="13" cy="13" r="12" stroke="#00A4D7" stroke-width="2"/>
<path d="M19.0461 7.33639C19.1515 7.22989 19.2774 7.14528 19.4163 7.08751C19.5553 7.02975 19.7044 7 19.8551 7C20.0058 7 20.155 7.02975 20.2939 7.08751C20.4328 7.14528 20.5587 7.22989 20.6642 7.33639C21.1062 7.77842 21.1124 8.49271 20.6796 8.94239L11.5412 19.6337C11.4374 19.7465 11.3115 19.8371 11.1712 19.9001C11.0308 19.963 10.8789 19.9969 10.7249 19.9998C10.5708 20.0027 10.4178 19.9744 10.2751 19.9167C10.1325 19.859 10.0032 19.7731 9.89524 19.6643L4.33459 14.0877C4.12013 13.8712 4 13.5802 4 13.277C4 12.9739 4.12013 12.6828 4.33459 12.4664C4.44006 12.3599 4.56594 12.2753 4.70487 12.2175C4.84379 12.1598 4.99296 12.13 5.14365 12.13C5.29433 12.13 5.44351 12.1598 5.58243 12.2175C5.72135 12.2753 5.84724 12.3599 5.95271 12.4664L10.6695 17.1972L19.0152 7.37004C19.0248 7.35822 19.0351 7.34699 19.0461 7.33639Z" fill="#00A4D7"/>
</g>
<defs>
<clipPath id="clip0_758_920">
<rect width="26" height="26" fill="white"/>
</clipPath>
</defs>
</svg>
