<svg width="43" height="53" viewBox="0 0 43 53" fill="none" xmlns="http://www.w3.org/2000/svg">
<path d="M3.28906 50.8125L5.04688 44.5469H6.47656L6.01562 47.0078L4.25781 53H3.0625L3.28906 50.8125ZM2.39844 44.5469L3.65625 50.8047L3.77344 53H2.36719L0.226562 44.5469H2.39844ZM8.08594 50.7031L9.3125 44.5469H11.4922L9.35156 53H7.95312L8.08594 50.7031ZM6.67188 44.5469L8.42188 50.7656L8.66406 53H7.46094L5.70312 47.0156L5.25781 44.5469H6.67188ZM17.1875 51.0938V47.3281C17.1875 47.0573 17.1432 46.8255 17.0547 46.6328C16.9661 46.4349 16.8281 46.2812 16.6406 46.1719C16.4583 46.0625 16.2214 46.0078 15.9297 46.0078C15.6797 46.0078 15.4635 46.0521 15.2812 46.1406C15.099 46.224 14.9583 46.3464 14.8594 46.5078C14.7604 46.6641 14.7109 46.849 14.7109 47.0625H12.4609C12.4609 46.7031 12.5443 46.362 12.7109 46.0391C12.8776 45.7161 13.1198 45.4323 13.4375 45.1875C13.7552 44.9375 14.1328 44.7422 14.5703 44.6016C15.013 44.4609 15.5078 44.3906 16.0547 44.3906C16.7109 44.3906 17.2943 44.5 17.8047 44.7188C18.3151 44.9375 18.7161 45.2656 19.0078 45.7031C19.3047 46.1406 19.4531 46.6875 19.4531 47.3438V50.9609C19.4531 51.4245 19.4818 51.8047 19.5391 52.1016C19.5964 52.3932 19.6797 52.6484 19.7891 52.8672V53H17.5156C17.4062 52.7708 17.3229 52.4844 17.2656 52.1406C17.2135 51.7917 17.1875 51.4427 17.1875 51.0938ZM17.4844 47.8516L17.5 49.125H16.2422C15.9453 49.125 15.6875 49.1589 15.4688 49.2266C15.25 49.2943 15.0703 49.3906 14.9297 49.5156C14.7891 49.6354 14.6849 49.776 14.6172 49.9375C14.5547 50.099 14.5234 50.276 14.5234 50.4688C14.5234 50.6615 14.5677 50.8359 14.6562 50.9922C14.7448 51.1432 14.8724 51.263 15.0391 51.3516C15.2057 51.4349 15.401 51.4766 15.625 51.4766C15.9635 51.4766 16.2578 51.4089 16.5078 51.2734C16.7578 51.138 16.9505 50.9714 17.0859 50.7734C17.2266 50.5755 17.2995 50.388 17.3047 50.2109L17.8984 51.1641C17.8151 51.3776 17.7005 51.599 17.5547 51.8281C17.4141 52.0573 17.2344 52.2734 17.0156 52.4766C16.7969 52.6745 16.5339 52.8385 16.2266 52.9688C15.9193 53.0938 15.5547 53.1562 15.1328 53.1562C14.5964 53.1562 14.1094 53.0495 13.6719 52.8359C13.2396 52.6172 12.8958 52.3177 12.6406 51.9375C12.3906 51.5521 12.2656 51.1146 12.2656 50.625C12.2656 50.1823 12.349 49.7891 12.5156 49.4453C12.6823 49.1016 12.9271 48.8125 13.25 48.5781C13.5781 48.3385 13.987 48.1589 14.4766 48.0391C14.9661 47.9141 15.5339 47.8516 16.1797 47.8516H17.4844ZM23.5625 41V53H21.3047V41H23.5625ZM27.7969 41V53H25.5391V41H27.7969ZM33.5469 53.1562C32.8906 53.1562 32.3021 53.0521 31.7812 52.8438C31.2604 52.6302 30.8177 52.3359 30.4531 51.9609C30.0938 51.5859 29.8177 51.151 29.625 50.6562C29.4323 50.1562 29.3359 49.625 29.3359 49.0625V48.75C29.3359 48.1094 29.4271 47.5234 29.6094 46.9922C29.7917 46.4609 30.0521 46 30.3906 45.6094C30.7344 45.2188 31.151 44.9193 31.6406 44.7109C32.1302 44.4974 32.6823 44.3906 33.2969 44.3906C33.8958 44.3906 34.4271 44.4896 34.8906 44.6875C35.3542 44.8854 35.7422 45.1667 36.0547 45.5312C36.3724 45.8958 36.612 46.3333 36.7734 46.8438C36.9349 47.349 37.0156 47.9115 37.0156 48.5312V49.4688H30.2969V47.9688H34.8047V47.7969C34.8047 47.4844 34.7474 47.2057 34.6328 46.9609C34.5234 46.7109 34.3568 46.513 34.1328 46.3672C33.9089 46.2214 33.6224 46.1484 33.2734 46.1484C32.9766 46.1484 32.7214 46.2135 32.5078 46.3438C32.2943 46.474 32.1198 46.6562 31.9844 46.8906C31.8542 47.125 31.7552 47.401 31.6875 47.7188C31.625 48.0312 31.5938 48.375 31.5938 48.75V49.0625C31.5938 49.401 31.6406 49.7135 31.7344 50C31.8333 50.2865 31.9714 50.5339 32.1484 50.7422C32.3307 50.9505 32.5495 51.112 32.8047 51.2266C33.0651 51.3411 33.3594 51.3984 33.6875 51.3984C34.0938 51.3984 34.4714 51.3203 34.8203 51.1641C35.1745 51.0026 35.4792 50.7604 35.7344 50.4375L36.8281 51.625C36.651 51.8802 36.4089 52.125 36.1016 52.3594C35.7995 52.5938 35.4349 52.7865 35.0078 52.9375C34.5807 53.0833 34.0938 53.1562 33.5469 53.1562ZM42.4375 44.5469V46.1406H37.5156V44.5469H42.4375ZM38.7344 42.4609H40.9844V50.4531C40.9844 50.6979 41.0156 50.8854 41.0781 51.0156C41.1458 51.1458 41.2448 51.237 41.375 51.2891C41.5052 51.3359 41.6693 51.3594 41.8672 51.3594C42.0078 51.3594 42.1328 51.3542 42.2422 51.3438C42.3568 51.3281 42.4531 51.3125 42.5312 51.2969L42.5391 52.9531C42.3464 53.0156 42.138 53.0651 41.9141 53.1016C41.6901 53.138 41.4427 53.1562 41.1719 53.1562C40.6771 53.1562 40.2448 53.0755 39.875 52.9141C39.5104 52.7474 39.2292 52.4818 39.0312 52.1172C38.8333 51.7526 38.7344 51.2734 38.7344 50.6797V42.4609Z" fill="white"/>
<rect x="8.5" y="1.5" width="27" height="27" rx="5.5" stroke="white" stroke-width="3"/>
<circle cx="30.5" cy="15.5" r="1.5" fill="white"/>
<path d="M27 14C27 12.8954 27.8954 12 29 12H35V19H29C27.8954 19 27 18.1046 27 17V14Z" stroke="white" stroke-width="2"/>
</svg>
