<svg width="390" height="240" viewBox="0 0 390 240" fill="none" xmlns="http://www.w3.org/2000/svg">
<g clip-path="url(#clip0_427_842)">
<g filter="url(#filter0_d_427_842)">
<rect x="14" y="8" width="360" height="220" rx="13" fill="#0B334D"/>
</g>
<mask id="mask0_427_842" style="mask-type:luminance" maskUnits="userSpaceOnUse" x="54" y="-23" width="384" height="283">
<path d="M437.784 -23H54V260H437.784V-23Z" fill="white"/>
</mask>
<g mask="url(#mask0_427_842)">
<path d="M145.761 118.633C145.761 87.2486 119.825 61.8188 87.8156 61.8188C79.2251 61.8188 71.0723 63.6429 63.7402 66.9692C57.3383 82.9567 53.7817 100.446 53.7817 118.687C53.7817 136.928 57.2836 154.364 63.7402 170.405C71.0723 173.678 79.2251 175.555 87.8156 175.555C119.825 175.448 145.761 150.018 145.761 118.633Z" fill="white" fill-opacity="0.03"/>
<path d="M293.386 -22.7319C232.377 -22.7319 180.232 14.447 159.166 66.916C166.498 63.6434 174.651 61.7657 183.241 61.7657C208.958 61.7657 230.735 78.1824 238.341 100.876C245.947 78.1824 267.724 61.7657 293.441 61.7657C325.45 61.7657 351.386 87.1955 351.386 118.58C351.386 149.965 325.45 175.395 293.441 175.395C267.724 175.395 245.947 158.978 238.341 136.285C230.735 158.978 208.958 175.395 183.241 175.395C174.651 175.395 166.498 173.571 159.166 170.245C180.232 222.821 232.377 260 293.386 260C372.999 260 437.565 196.694 437.565 118.634C437.565 40.5742 372.999 -22.7319 293.386 -22.7319Z" fill="white" fill-opacity="0.03"/>
</g>
</g>
<circle cx="298" cy="118" r="45.5" stroke="white" stroke-width="9"/>
<circle cx="298" cy="118" r="30.5" stroke="white" stroke-width="9"/>
<circle cx="298" cy="118" r="15.5" stroke="white" stroke-width="9"/>
<rect x="261" y="102" width="74" height="32" rx="16" fill="#0B334D"/>
<path d="M277.166 123.582C277.639 123.582 278.076 123.485 278.477 123.292C278.878 123.099 279.207 122.834 279.465 122.497C279.723 122.153 279.869 121.763 279.905 121.326H281.796C281.76 122.014 281.527 122.655 281.098 123.249C280.675 123.836 280.12 124.312 279.433 124.678C278.745 125.036 277.99 125.215 277.166 125.215C276.292 125.215 275.53 125.061 274.878 124.753C274.233 124.445 273.696 124.022 273.267 123.485C272.844 122.948 272.525 122.332 272.311 121.638C272.103 120.936 271.999 120.195 271.999 119.414V118.963C271.999 118.182 272.103 117.445 272.311 116.75C272.525 116.048 272.844 115.429 273.267 114.892C273.696 114.354 274.233 113.932 274.878 113.624C275.53 113.316 276.292 113.162 277.166 113.162C278.076 113.162 278.87 113.348 279.551 113.721C280.231 114.086 280.765 114.587 281.151 115.225C281.545 115.855 281.76 116.571 281.796 117.373H279.905C279.869 116.893 279.733 116.46 279.497 116.073C279.268 115.687 278.953 115.379 278.552 115.149C278.158 114.913 277.696 114.795 277.166 114.795C276.557 114.795 276.045 114.917 275.63 115.16C275.222 115.396 274.896 115.719 274.652 116.127C274.416 116.528 274.244 116.976 274.137 117.47C274.036 117.957 273.986 118.454 273.986 118.963V119.414C273.986 119.923 274.036 120.424 274.137 120.918C274.237 121.412 274.405 121.86 274.642 122.261C274.885 122.662 275.211 122.984 275.619 123.228C276.035 123.464 276.55 123.582 277.166 123.582ZM286.189 108.5V125H284.191V108.5H286.189ZM296.233 123.013V117.029C296.233 116.571 296.14 116.174 295.954 115.837C295.775 115.493 295.503 115.228 295.138 115.042C294.772 114.856 294.321 114.763 293.784 114.763C293.283 114.763 292.842 114.849 292.463 115.021C292.09 115.192 291.797 115.418 291.582 115.697C291.374 115.977 291.271 116.277 291.271 116.6H289.283C289.283 116.184 289.391 115.772 289.605 115.364C289.82 114.956 290.128 114.587 290.529 114.258C290.938 113.921 291.424 113.656 291.99 113.463C292.563 113.262 293.201 113.162 293.902 113.162C294.747 113.162 295.492 113.305 296.137 113.592C296.788 113.878 297.297 114.312 297.662 114.892C298.035 115.465 298.221 116.184 298.221 117.051V122.465C298.221 122.852 298.253 123.263 298.317 123.7C298.389 124.137 298.493 124.513 298.629 124.828V125H296.556C296.455 124.771 296.377 124.466 296.319 124.087C296.262 123.7 296.233 123.342 296.233 123.013ZM296.577 117.953L296.599 119.35H294.59C294.024 119.35 293.519 119.396 293.075 119.489C292.631 119.575 292.259 119.708 291.958 119.887C291.657 120.066 291.428 120.291 291.271 120.563C291.113 120.828 291.034 121.14 291.034 121.498C291.034 121.863 291.117 122.196 291.281 122.497C291.446 122.798 291.693 123.038 292.022 123.217C292.359 123.389 292.771 123.475 293.258 123.475C293.867 123.475 294.404 123.346 294.869 123.088C295.335 122.83 295.703 122.515 295.976 122.143C296.255 121.77 296.405 121.409 296.427 121.058L297.275 122.014C297.225 122.314 297.089 122.647 296.867 123.013C296.645 123.378 296.348 123.729 295.976 124.065C295.61 124.395 295.174 124.671 294.665 124.893C294.164 125.107 293.598 125.215 292.968 125.215C292.18 125.215 291.489 125.061 290.895 124.753C290.307 124.445 289.849 124.033 289.52 123.518C289.197 122.995 289.036 122.411 289.036 121.767C289.036 121.144 289.158 120.596 289.401 120.123C289.645 119.643 289.996 119.246 290.454 118.931C290.912 118.608 291.464 118.365 292.108 118.2C292.753 118.035 293.473 117.953 294.268 117.953H296.577ZM303.506 113.377V125H301.508V113.377H303.506ZM301.357 110.294C301.357 109.972 301.454 109.7 301.647 109.478C301.848 109.256 302.142 109.145 302.528 109.145C302.908 109.145 303.198 109.256 303.398 109.478C303.606 109.7 303.71 109.972 303.71 110.294C303.71 110.602 303.606 110.867 303.398 111.089C303.198 111.304 302.908 111.411 302.528 111.411C302.142 111.411 301.848 111.304 301.647 111.089C301.454 110.867 301.357 110.602 301.357 110.294ZM308.673 115.687V125H306.675V113.377H308.565L308.673 115.687ZM308.265 118.748L307.341 118.716C307.348 117.921 307.452 117.187 307.652 116.514C307.853 115.833 308.15 115.243 308.544 114.741C308.938 114.24 309.428 113.853 310.016 113.581C310.603 113.302 311.283 113.162 312.057 113.162C312.601 113.162 313.102 113.241 313.561 113.398C314.019 113.549 314.416 113.789 314.753 114.118C315.09 114.448 315.351 114.87 315.537 115.386C315.723 115.901 315.816 116.524 315.816 117.255V125H313.829V117.352C313.829 116.743 313.725 116.256 313.518 115.891C313.317 115.525 313.031 115.26 312.658 115.096C312.286 114.924 311.849 114.838 311.348 114.838C310.76 114.838 310.27 114.942 309.876 115.149C309.482 115.357 309.167 115.644 308.931 116.009C308.694 116.374 308.522 116.793 308.415 117.266C308.315 117.731 308.265 118.225 308.265 118.748ZM315.795 117.652L314.463 118.061C314.47 117.423 314.574 116.811 314.774 116.224C314.982 115.636 315.279 115.114 315.666 114.655C316.06 114.197 316.543 113.835 317.116 113.57C317.689 113.298 318.344 113.162 319.082 113.162C319.705 113.162 320.257 113.244 320.736 113.409C321.223 113.574 321.632 113.828 321.961 114.172C322.298 114.508 322.552 114.942 322.724 115.472C322.896 116.002 322.981 116.632 322.981 117.362V125H320.983V117.341C320.983 116.689 320.88 116.184 320.672 115.826C320.471 115.461 320.185 115.207 319.812 115.063C319.447 114.913 319.01 114.838 318.502 114.838C318.065 114.838 317.678 114.913 317.342 115.063C317.005 115.214 316.722 115.422 316.493 115.687C316.264 115.944 316.089 116.242 315.967 116.578C315.852 116.915 315.795 117.273 315.795 117.652Z" fill="white"/>
<defs>
<filter id="filter0_d_427_842" x="10" y="7" width="368" height="228" filterUnits="userSpaceOnUse" color-interpolation-filters="sRGB">
<feFlood flood-opacity="0" result="BackgroundImageFix"/>
<feColorMatrix in="SourceAlpha" type="matrix" values="0 0 0 0 0 0 0 0 0 0 0 0 0 0 0 0 0 0 127 0" result="hardAlpha"/>
<feOffset dy="3"/>
<feGaussianBlur stdDeviation="2"/>
<feComposite in2="hardAlpha" operator="out"/>
<feColorMatrix type="matrix" values="0 0 0 0 0 0 0 0 0 0 0 0 0 0 0 0 0 0 0.25 0"/>
<feBlend mode="normal" in2="BackgroundImageFix" result="effect1_dropShadow_427_842"/>
<feBlend mode="normal" in="SourceGraphic" in2="effect1_dropShadow_427_842" result="shape"/>
</filter>
<clipPath id="clip0_427_842">
<rect width="360" height="228" fill="white" transform="translate(14 8)"/>
</clipPath>
</defs>
</svg>
