<svg width="360" height="220" viewBox="0 0 360 220" fill="none" xmlns="http://www.w3.org/2000/svg">
<g clip-path="url(#clip0_470_912)">
<g filter="url(#filter0_d_470_912)">
<rect width="360" height="220" fill="#0B334D"/>
</g>
<mask id="mask0_470_912" style="mask-type:luminance" maskUnits="userSpaceOnUse" x="40" y="-30" width="384" height="274">
<path d="M423.784 -29.9121H40V243.158H423.784V-29.9121Z" fill="white"/>
</mask>
<g mask="url(#mask0_470_912)">
<path d="M131.761 106.752C131.761 76.4686 105.825 51.9312 73.8156 51.9312C65.2251 51.9312 57.0723 53.6912 49.7402 56.9008C43.3383 72.3273 39.7817 89.2033 39.7817 106.804C39.7817 124.405 43.2836 141.229 49.7402 156.707C57.0723 159.865 65.2251 161.677 73.8156 161.677C105.825 161.573 131.761 137.036 131.761 106.752Z" fill="white" fill-opacity="0.03"/>
<path d="M279.386 -29.6533C218.377 -29.6533 166.232 6.22112 145.166 56.8491C152.498 53.6913 160.651 51.8795 169.241 51.8795C194.958 51.8795 216.735 67.7202 224.341 89.6175C231.947 67.7202 253.724 51.8795 279.441 51.8795C311.45 51.8795 337.386 76.417 337.386 106.701C337.386 136.984 311.45 161.522 279.441 161.522C253.724 161.522 231.947 145.681 224.341 123.784C216.735 145.681 194.958 161.522 169.241 161.522C160.651 161.522 152.498 159.762 145.166 156.552C166.232 207.284 218.377 243.158 279.386 243.158C358.999 243.158 423.565 182.073 423.565 106.752C423.565 31.4316 358.999 -29.6533 279.386 -29.6533Z" fill="white" fill-opacity="0.03"/>
</g>
</g>
<circle cx="280" cy="107" r="45.5" stroke="white" stroke-width="9"/>
<circle cx="280" cy="107" r="30.5" stroke="white" stroke-width="9"/>
<circle cx="280" cy="107" r="15.5" stroke="white" stroke-width="9"/>
<rect x="243" y="91" width="74" height="32" rx="16" fill="#0B334D"/>
<path d="M259.166 112.582C259.639 112.582 260.076 112.485 260.477 112.292C260.878 112.099 261.207 111.834 261.465 111.497C261.723 111.153 261.869 110.763 261.905 110.326H263.796C263.76 111.014 263.527 111.655 263.098 112.249C262.675 112.836 262.12 113.312 261.433 113.678C260.745 114.036 259.99 114.215 259.166 114.215C258.292 114.215 257.53 114.061 256.878 113.753C256.233 113.445 255.696 113.022 255.267 112.485C254.844 111.948 254.525 111.332 254.311 110.638C254.103 109.936 253.999 109.195 253.999 108.414V107.963C253.999 107.182 254.103 106.445 254.311 105.75C254.525 105.048 254.844 104.429 255.267 103.892C255.696 103.354 256.233 102.932 256.878 102.624C257.53 102.316 258.292 102.162 259.166 102.162C260.076 102.162 260.87 102.348 261.551 102.721C262.231 103.086 262.765 103.587 263.151 104.225C263.545 104.855 263.76 105.571 263.796 106.373H261.905C261.869 105.893 261.733 105.46 261.497 105.073C261.268 104.687 260.953 104.379 260.552 104.149C260.158 103.913 259.696 103.795 259.166 103.795C258.557 103.795 258.045 103.917 257.63 104.16C257.222 104.396 256.896 104.719 256.652 105.127C256.416 105.528 256.244 105.976 256.137 106.47C256.036 106.957 255.986 107.454 255.986 107.963V108.414C255.986 108.923 256.036 109.424 256.137 109.918C256.237 110.412 256.405 110.86 256.642 111.261C256.885 111.662 257.211 111.984 257.619 112.228C258.035 112.464 258.55 112.582 259.166 112.582ZM268.189 97.5V114H266.191V97.5H268.189ZM278.233 112.013V106.029C278.233 105.571 278.14 105.174 277.954 104.837C277.775 104.493 277.503 104.228 277.138 104.042C276.772 103.856 276.321 103.763 275.784 103.763C275.283 103.763 274.842 103.849 274.463 104.021C274.09 104.192 273.797 104.418 273.582 104.697C273.374 104.977 273.271 105.277 273.271 105.6H271.283C271.283 105.184 271.391 104.772 271.605 104.364C271.82 103.956 272.128 103.587 272.529 103.258C272.938 102.921 273.424 102.656 273.99 102.463C274.563 102.262 275.201 102.162 275.902 102.162C276.747 102.162 277.492 102.305 278.137 102.592C278.788 102.878 279.297 103.312 279.662 103.892C280.035 104.465 280.221 105.184 280.221 106.051V111.465C280.221 111.852 280.253 112.263 280.317 112.7C280.389 113.137 280.493 113.513 280.629 113.828V114H278.556C278.455 113.771 278.377 113.466 278.319 113.087C278.262 112.7 278.233 112.342 278.233 112.013ZM278.577 106.953L278.599 108.35H276.59C276.024 108.35 275.519 108.396 275.075 108.489C274.631 108.575 274.259 108.708 273.958 108.887C273.657 109.066 273.428 109.291 273.271 109.563C273.113 109.828 273.034 110.14 273.034 110.498C273.034 110.863 273.117 111.196 273.281 111.497C273.446 111.798 273.693 112.038 274.022 112.217C274.359 112.389 274.771 112.475 275.258 112.475C275.867 112.475 276.404 112.346 276.869 112.088C277.335 111.83 277.703 111.515 277.976 111.143C278.255 110.77 278.405 110.409 278.427 110.058L279.275 111.014C279.225 111.314 279.089 111.647 278.867 112.013C278.645 112.378 278.348 112.729 277.976 113.065C277.61 113.395 277.174 113.671 276.665 113.893C276.164 114.107 275.598 114.215 274.968 114.215C274.18 114.215 273.489 114.061 272.895 113.753C272.307 113.445 271.849 113.033 271.52 112.518C271.197 111.995 271.036 111.411 271.036 110.767C271.036 110.144 271.158 109.596 271.401 109.123C271.645 108.643 271.996 108.246 272.454 107.931C272.912 107.608 273.464 107.365 274.108 107.2C274.753 107.035 275.473 106.953 276.268 106.953H278.577ZM285.506 102.377V114H283.508V102.377H285.506ZM283.357 99.2939C283.357 98.9717 283.454 98.6995 283.647 98.4775C283.848 98.2555 284.142 98.1445 284.528 98.1445C284.908 98.1445 285.198 98.2555 285.398 98.4775C285.606 98.6995 285.71 98.9717 285.71 99.2939C285.71 99.6019 285.606 99.8669 285.398 100.089C285.198 100.304 284.908 100.411 284.528 100.411C284.142 100.411 283.848 100.304 283.647 100.089C283.454 99.8669 283.357 99.6019 283.357 99.2939ZM290.673 104.687V114H288.675V102.377H290.565L290.673 104.687ZM290.265 107.748L289.341 107.716C289.348 106.921 289.452 106.187 289.652 105.514C289.853 104.833 290.15 104.243 290.544 103.741C290.938 103.24 291.428 102.853 292.016 102.581C292.603 102.302 293.283 102.162 294.057 102.162C294.601 102.162 295.102 102.241 295.561 102.398C296.019 102.549 296.416 102.789 296.753 103.118C297.09 103.448 297.351 103.87 297.537 104.386C297.723 104.901 297.816 105.524 297.816 106.255V114H295.829V106.352C295.829 105.743 295.725 105.256 295.518 104.891C295.317 104.525 295.031 104.26 294.658 104.096C294.286 103.924 293.849 103.838 293.348 103.838C292.76 103.838 292.27 103.942 291.876 104.149C291.482 104.357 291.167 104.644 290.931 105.009C290.694 105.374 290.522 105.793 290.415 106.266C290.315 106.731 290.265 107.225 290.265 107.748ZM297.795 106.652L296.463 107.061C296.47 106.423 296.574 105.811 296.774 105.224C296.982 104.636 297.279 104.114 297.666 103.655C298.06 103.197 298.543 102.835 299.116 102.57C299.689 102.298 300.344 102.162 301.082 102.162C301.705 102.162 302.257 102.244 302.736 102.409C303.223 102.574 303.632 102.828 303.961 103.172C304.298 103.508 304.552 103.942 304.724 104.472C304.896 105.002 304.981 105.632 304.981 106.362V114H302.983V106.341C302.983 105.689 302.88 105.184 302.672 104.826C302.471 104.461 302.185 104.207 301.812 104.063C301.447 103.913 301.01 103.838 300.502 103.838C300.065 103.838 299.678 103.913 299.342 104.063C299.005 104.214 298.722 104.422 298.493 104.687C298.264 104.944 298.089 105.242 297.967 105.578C297.852 105.915 297.795 106.273 297.795 106.652Z" fill="white"/>
<defs>
<filter id="filter0_d_470_912" x="-4" y="-1" width="368" height="228" filterUnits="userSpaceOnUse" color-interpolation-filters="sRGB">
<feFlood flood-opacity="0" result="BackgroundImageFix"/>
<feColorMatrix in="SourceAlpha" type="matrix" values="0 0 0 0 0 0 0 0 0 0 0 0 0 0 0 0 0 0 127 0" result="hardAlpha"/>
<feOffset dy="3"/>
<feGaussianBlur stdDeviation="2"/>
<feComposite in2="hardAlpha" operator="out"/>
<feColorMatrix type="matrix" values="0 0 0 0 0 0 0 0 0 0 0 0 0 0 0 0 0 0 0.25 0"/>
<feBlend mode="normal" in2="BackgroundImageFix" result="effect1_dropShadow_470_912"/>
<feBlend mode="normal" in="SourceGraphic" in2="effect1_dropShadow_470_912" result="shape"/>
</filter>
<clipPath id="clip0_470_912">
<rect width="360" height="220" fill="white"/>
</clipPath>
</defs>
</svg>
